<?xml version="1.0" encoding="UTF-8"?>
<!DOCTYPE svg PUBLIC "-//W3C//DTD SVG 1.1//EN" "http://www.w3.org/Graphics/SVG/1.1/DTD/svg11.dtd">
<!-- Creator: CorelDRAW -->
<svg xmlns="http://www.w3.org/2000/svg" xml:space="preserve" width="25px" height="25px" style="shape-rendering:geometricPrecision; text-rendering:geometricPrecision; image-rendering:optimizeQuality; fill-rule:evenodd; clip-rule:evenodd"
viewBox="0 0 8.22853 8.22854"
 xmlns:xlink="http://www.w3.org/1999/xlink">
 <defs>
  <style type="text/css">
   <![CDATA[
    .fil0 {fill:#fff}
   ]]>
  </style>
 </defs>
 <g id="Layer_x0020_1">
  <metadata id="CorelCorpID_0Corel-Layer"/>
  <path class="fil0" d="M7.26425 0l-6.29997 0c-0.531704,0 -0.964284,0.43258 -0.964284,0.964284l0 6.29997c0,0.531704 0.43258,0.964284 0.964284,0.964284l6.29997 -7.73984e-006c0.531704,0 0.964276,-0.432572 0.964276,-0.964276l0 -6.29997c0,-0.531704 -0.432572,-0.964284 -0.964276,-0.964284zm0.321428 7.26425c0,0.177235 -0.144193,0.32142 -0.321428,0.32142l-1.83214 7.73984e-006 0 -2.61963 0.993053 0 0.164085 -0.99642 -1.15714 0 0 -0.691067c0,-0.272814 0.209332,-0.482146 0.482138,-0.482146l0.658931 0 0 -0.99642 -0.658931 0c-0.818395,0 -1.47821,0.662941 -1.47821,1.48136l0 0.688273 -0.964632 0 0 0.99642 0.964632 0 0 2.61963 -3.47176 0c-0.177235,0 -0.321428,-0.144193 -0.321428,-0.321428l0 -6.29997c0,-0.177235 0.144186,-0.321428 0.32142,-0.321428l6.29998 0c0.177235,0 0.32142,0.144186 0.32142,0.32142l7.73984e-006 6.29998z"/>
 </g>
</svg>
