<?xml version="1.0" encoding="UTF-8"?>
<!DOCTYPE svg PUBLIC "-//W3C//DTD SVG 1.1//EN" "http://www.w3.org/Graphics/SVG/1.1/DTD/svg11.dtd">
<!-- Creator: CorelDRAW -->
<svg xmlns="http://www.w3.org/2000/svg" xml:space="preserve" width="25px" height="25px" style="shape-rendering:geometricPrecision; text-rendering:geometricPrecision; image-rendering:optimizeQuality; fill-rule:evenodd; clip-rule:evenodd"
viewBox="0 0 58.929 58.9291"
 xmlns:xlink="http://www.w3.org/1999/xlink">
 <defs>
  <style type="text/css">
   <![CDATA[
    .fil0 {fill:#fff}
   ]]>
  </style>
 </defs>
 <g id="Layer_x0020_1">
  <metadata id="CorelCorpID_0Corel-Layer"/>
  <path class="fil0" d="M52.0233 58.9291l-45.1175 0c-3.80781,0 -6.90573,-3.09787 -6.90573,-6.90573l0 -45.1176c0,-3.80781 3.09793,-6.90573 6.90573,-6.90573l45.1175 5.49951e-005c3.80786,0 6.90573,3.09787 6.90573,6.90573l0 45.1176c0,3.80781 -3.09787,6.90573 -6.90573,6.90573l0 -5.49951e-005zm-45.1175 -54.3252c-1.26923,0 -2.30193,1.03264 -2.30193,2.30193l0 45.1176c0,1.26923 1.03264,2.30193 2.30193,2.30193l45.1175 -5.49951e-005c1.26929,0 2.30193,-1.03264 2.30193,-2.30193l0 -45.1176c0,-1.26923 -1.03259,-2.30193 -2.30193,-2.30193l-45.1175 5.49951e-005zm22.5588 41.5496c-9.20222,0 -16.6889,-7.4867 -16.6889,-16.6889 0,-9.20222 7.48665,-16.6889 16.6889,-16.6889 9.20227,0 16.6889,7.4867 16.6889,16.6889 0,9.20222 -7.48665,16.6889 -16.6889,16.6889zm0 -28.774c-6.6637,0 -12.0851,5.42136 -12.0851,12.0851 0,6.6637 5.42136,12.0851 12.0851,12.0851 6.6637,0 12.0851,-5.42136 12.0851,-12.0851 0,-6.6637 -5.42142,-12.0851 -12.0851,-12.0851zm17.955 -8.17183c-1.27138,0 -2.30193,1.03061 -2.30193,2.30193 0,1.27138 1.03055,2.30193 2.30193,2.30193 1.27132,0 2.30193,-1.03055 2.30193,-2.30193 0,-1.27132 -1.03061,-2.30193 -2.30193,-2.30193z"/>
 </g>
</svg>
