<svg xmlns="http://www.w3.org/2000/svg" viewBox="0 0 25 25"><defs><style>.a,.b{fill:#fff;}.a{fill-rule:evenodd;}</style></defs><path class="a" d="M22.07,0H2.93A2.93,2.93,0,0,0,0,2.93V22.07A2.93,2.93,0,0,0,2.93,25H22.07A2.93,2.93,0,0,0,25,22.07V2.93A2.93,2.93,0,0,0,22.07,0ZM13.48,23.05H2.93a1,1,0,0,1-1-1V2.93a1,1,0,0,1,1-1H22.07a1,1,0,0,1,1,1V22.07a1,1,0,0,1-1,1H16.5"/><path class="b" d="M7.56,13.66l2.3,5.74,3-3L18,20.48l3.71-16L3.17,12ZM6.12,11.93l8.82-3.54-7,4.25ZM16.51,8.71l-5.85,5.35L10,16.72l-1.3-3.26ZM11.1,16.63l.35-1.33.55.43Zm6.2,1.93L12,14.33,20,7Z"/></svg>