<svg width="30" height="31" viewBox="0 0 30 31" fill="none" xmlns="http://www.w3.org/2000/svg">
<g clip-path="url(#clip0_2_797)">
<g clip-path="url(#clip1_2_797)">
<path fill-rule="evenodd" clip-rule="evenodd" d="M26.4844 0.0600586H3.51563C1.57712 0.0600586 0 1.63718 0 3.57569V26.5444C0 28.4829 1.57712 30.06 3.51563 30.06L26.4844 30.06C28.4229 30.06 30 28.4829 30 26.5444V3.57569C30 1.63718 28.4229 0.0600586 26.4844 0.0600586ZM27.6562 26.5444C27.6562 27.1906 27.1305 27.7163 26.4844 27.7163L19.8047 27.7163V18.1655H23.4252L24.0234 14.5327H19.8046V12.0132C19.8046 11.0186 20.5678 10.2554 21.5625 10.2554H23.9648V6.62256H21.5625C18.5787 6.62256 16.1731 9.03955 16.1731 12.0234V14.5327H12.6562V18.1655H16.1731V27.7163H3.51562C2.86945 27.7163 2.34374 27.1906 2.34374 26.5444V3.57568C2.34374 2.9295 2.86942 2.4038 3.51559 2.4038H26.4844C27.1305 2.4038 27.6562 2.92948 27.6562 3.57565L27.6562 26.5444Z" fill="white"/>
</g>
</g>
<defs>
<clipPath id="clip0_2_797">
<rect width="30" height="30" fill="white" transform="translate(0 0.0600586)"/>
</clipPath>
<clipPath id="clip1_2_797">
<rect width="30" height="30" fill="white" transform="translate(0 0.0600586)"/>
</clipPath>
</defs>
</svg>
