<svg width="31" height="31" viewBox="0 0 31 31" fill="none" xmlns="http://www.w3.org/2000/svg">
<g clip-path="url(#clip0_2_829)">
<g clip-path="url(#clip1_2_829)">
<path fill-rule="evenodd" clip-rule="evenodd" d="M27.284 0.0600586H4.31599C3.38349 0.0600586 2.48918 0.430493 1.8298 1.08987C1.17042 1.74925 0.799988 2.64356 0.799988 3.57606L0.799988 26.5441C0.799988 27.0058 0.890932 27.463 1.06763 27.8896C1.24432 28.3162 1.50331 28.7038 1.8298 29.0302C2.15629 29.3567 2.54389 29.6157 2.97047 29.7924C3.39705 29.9691 3.85426 30.0601 4.31599 30.0601H27.284C27.7457 30.0601 28.2029 29.9691 28.6295 29.7924C29.0561 29.6157 29.4437 29.3567 29.7702 29.0302C30.0967 28.7038 30.3557 28.3162 30.5323 27.8896C30.709 27.463 30.8 27.0058 30.8 26.5441V3.57606C30.8 3.11433 30.709 2.65712 30.5323 2.23054C30.3557 1.80396 30.0967 1.41636 29.7702 1.08987C29.4437 0.76338 29.0561 0.504394 28.6295 0.327698C28.2029 0.151003 27.7457 0.0600586 27.284 0.0600586ZM16.976 27.7201H4.31599C3.99773 27.7201 3.6925 27.5936 3.46746 27.3686C3.24242 27.1435 3.11599 26.8383 3.11599 26.5201V3.57606C3.11599 3.2578 3.24242 2.95257 3.46746 2.72753C3.6925 2.50249 3.99773 2.37606 4.31599 2.37606H27.284C27.6022 2.37606 27.9075 2.50249 28.1325 2.72753C28.3576 2.95257 28.484 3.2578 28.484 3.57606V26.5441C28.484 26.8623 28.3576 27.1675 28.1325 27.3926C27.9075 27.6176 27.6022 27.7441 27.284 27.7441H20.6" fill="white"/>
<path d="M9.872 16.452L12.632 23.34L16.232 19.74L22.4 24.636L26.852 5.43604L4.604 14.46L9.872 16.452ZM8.144 14.376L18.728 10.128L10.328 15.228L8.144 14.376ZM20.612 10.512L13.592 16.932L12.8 20.124L11.24 16.212L20.612 10.512ZM14.12 20.016L14.54 18.42L15.2 18.936L14.12 20.016ZM21.56 22.332L15.2 17.256L24.8 8.46004L21.56 22.332Z" fill="white"/>
</g>
</g>
<defs>
<clipPath id="clip0_2_829">
<rect width="30" height="30" fill="white" transform="translate(0.799988 0.0600586)"/>
</clipPath>
<clipPath id="clip1_2_829">
<rect width="30" height="30" fill="white" transform="translate(0.799988 0.0600586)"/>
</clipPath>
</defs>
</svg>
