<svg width="31" height="31" viewBox="0 0 31 31" fill="none" xmlns="http://www.w3.org/2000/svg">
<g clip-path="url(#clip0_2_820)">
<g clip-path="url(#clip1_2_820)">
<g clip-path="url(#clip2_2_820)">
<path fill-rule="evenodd" clip-rule="evenodd" d="M27.084 0.0600586H4.11601C3.18351 0.0600586 2.2892 0.430493 1.62982 1.08987C0.970441 1.74925 0.600006 2.64356 0.600006 3.57606L0.600006 26.5441C0.600006 27.0058 0.69095 27.463 0.867646 27.8896C1.04434 28.3162 1.30333 28.7038 1.62982 29.0302C1.95631 29.3567 2.34391 29.6157 2.77049 29.7924C3.19707 29.9691 3.65428 30.0601 4.11601 30.0601H27.084C27.5457 30.0601 28.0029 29.9691 28.4295 29.7924C28.8561 29.6157 29.2437 29.3567 29.5702 29.0302C29.8967 28.7038 30.1557 28.3162 30.3324 27.8896C30.5091 27.463 30.6 27.0058 30.6 26.5441V3.57606C30.6 3.11433 30.5091 2.65712 30.3324 2.23054C30.1557 1.80396 29.8967 1.41636 29.5702 1.08987C29.2437 0.76338 28.8561 0.504394 28.4295 0.327698C28.0029 0.151003 27.5457 0.0600586 27.084 0.0600586ZM16.776 27.7201H4.11601C3.79775 27.7201 3.49252 27.5936 3.26748 27.3686C3.04243 27.1435 2.91601 26.8383 2.91601 26.5201V3.57606C2.91601 3.2578 3.04243 2.95257 3.26748 2.72753C3.49252 2.50249 3.79775 2.37606 4.11601 2.37606H27.084C27.4023 2.37606 27.7075 2.50249 27.9325 2.72753C28.1576 2.95257 28.284 3.2578 28.284 3.57606V26.5441C28.284 26.8623 28.1576 27.1675 27.9325 27.3926C27.7075 27.6176 27.4023 27.7441 27.084 27.7441H20.4" fill="white"/>
<path fill-rule="evenodd" clip-rule="evenodd" d="M15.804 5.24418C14.0503 5.24418 12.3291 5.71687 10.8213 6.61253C9.31362 7.50819 8.0752 8.79369 7.23639 10.3338C6.39758 11.8738 5.98939 13.6115 6.05479 15.364C6.12019 17.1165 6.65675 18.8189 7.60801 20.2922L6.13201 23.5562C6.03837 23.7615 6.03 23.9956 6.10874 24.207C6.18748 24.4185 6.3469 24.5901 6.55201 24.6842C6.66558 24.7333 6.78828 24.7579 6.91201 24.7562H7.12801L11.22 23.6282C12.528 24.3141 13.9747 24.694 15.451 24.7394C16.9272 24.7847 18.3945 24.4943 19.7422 23.89C21.0899 23.2857 22.2827 22.3834 23.2309 21.2509C24.179 20.1185 24.8577 18.7856 25.2157 17.3527C25.5737 15.9198 25.6016 14.4243 25.2975 12.979C24.9934 11.5337 24.3651 10.1763 23.46 9.00922C22.5548 7.84211 21.3966 6.89574 20.0724 6.24146C18.7483 5.58718 17.2929 5.24208 15.816 5.23218L15.804 5.24418ZM15.804 23.0522C14.3799 23.0484 12.9816 22.6719 11.748 21.9602C11.6189 21.8788 11.4687 21.837 11.316 21.8402C11.2445 21.8287 11.1716 21.8287 11.1 21.8402L8.42401 22.5722L9.36001 20.5202C9.42124 20.3831 9.44569 20.2324 9.43096 20.083C9.41623 19.9336 9.36283 19.7907 9.27601 19.6682C8.22012 18.2013 7.68847 16.4218 7.76661 14.6161C7.84476 12.8103 8.52815 11.0834 9.70682 9.71321C10.8855 8.343 12.4909 7.4092 14.2646 7.06208C16.0384 6.71495 17.8774 6.9747 19.4856 7.79951C21.0938 8.62432 22.3778 9.96623 23.1309 11.6093C23.8839 13.2523 24.0623 15.101 23.6373 16.8577C23.2122 18.6144 22.2085 20.1771 20.7877 21.2941C19.3668 22.4112 17.6114 23.0178 15.804 23.0162V23.0522Z" fill="white"/>
<path fill-rule="evenodd" clip-rule="evenodd" d="M19.56 16.476C19.3637 16.3145 19.1323 16.2011 18.8844 16.1448C18.6365 16.0886 18.3788 16.091 18.132 16.152C17.772 16.296 17.532 16.884 17.292 17.172C17.2414 17.2414 17.1676 17.2905 17.084 17.3103C17.0004 17.3301 16.9124 17.3193 16.836 17.28C15.4757 16.731 14.3419 15.7369 13.62 14.46C13.5542 14.3854 13.5179 14.2894 13.5179 14.19C13.5179 14.0905 13.5542 13.9945 13.62 13.92C13.9067 13.6657 14.1183 13.3379 14.232 12.972C14.2474 12.5828 14.1561 12.1969 13.968 11.856C13.8101 11.3862 13.5232 10.9703 13.14 10.656C12.942 10.5766 12.7265 10.5515 12.5156 10.5831C12.3047 10.6147 12.106 10.702 11.94 10.836C11.6589 11.0818 11.4356 11.3869 11.2862 11.7292C11.1369 12.0715 11.0651 12.4426 11.076 12.816C11.0756 13.03 11.0997 13.2434 11.148 13.452C11.2753 13.944 11.4776 14.4136 11.748 14.844C11.9349 15.1772 12.1434 15.4979 12.372 15.804C13.1138 16.8183 14.0425 17.6817 15.108 18.348C15.6432 18.6807 16.2149 18.9504 16.812 19.152C17.4292 19.4411 18.1169 19.5453 18.792 19.452C19.1799 19.3948 19.5478 19.2435 19.8637 19.0113C20.1796 18.7791 20.4337 18.4731 20.604 18.12C20.6983 17.9051 20.7275 17.6673 20.688 17.436C20.592 16.968 19.944 16.692 19.56 16.476Z" fill="white"/>
</g>
</g>
</g>
<defs>
<clipPath id="clip0_2_820">
<rect width="30" height="30" fill="white" transform="translate(0.600006 0.0600586)"/>
</clipPath>
<clipPath id="clip1_2_820">
<rect width="30" height="30" fill="white" transform="translate(0.600006 0.0600586)"/>
</clipPath>
<clipPath id="clip2_2_820">
<rect width="30" height="30" fill="white" transform="translate(0.600006 0.0600586)"/>
</clipPath>
</defs>
</svg>
