<svg width="31" height="31" viewBox="0 0 31 31" fill="none" xmlns="http://www.w3.org/2000/svg">
<g clip-path="url(#clip0_2_804)">
<g clip-path="url(#clip1_2_804)">
<path fill-rule="evenodd" clip-rule="evenodd" d="M26.6843 30.06H3.71563C1.77712 30.06 0.200012 28.483 0.200012 26.5444V3.57567C0.200012 1.63717 1.77713 0.0600586 3.71563 0.0600586L26.6843 0.0600866C28.6229 0.0600866 30.1999 1.63717 30.1999 3.5757V26.5445C30.1999 28.483 28.6229 30.06 26.6843 30.06ZM3.71563 2.40382C3.06948 2.40382 2.54374 2.92952 2.54374 3.5757V26.5445C2.54374 27.1906 3.06945 27.7163 3.71563 27.7163L26.6843 27.7163C27.3305 27.7163 27.8562 27.1906 27.8562 26.5444V3.57567C27.8562 2.92953 27.3305 2.40379 26.6843 2.40379L3.71563 2.40382ZM15.2 23.5562C10.5153 23.5562 6.70391 19.7448 6.70391 15.0601C6.70391 10.3753 10.5153 6.56397 15.2 6.56397C19.8848 6.56397 23.6961 10.3753 23.6961 15.0601C23.6961 19.7448 19.8847 23.5562 15.2 23.5562ZM15.2 8.9077C11.8076 8.9077 9.04764 11.6676 9.04764 15.0601C9.04764 18.4525 11.8076 21.2124 15.2 21.2124C18.5924 21.2124 21.3524 18.4525 21.3524 15.0601C21.3524 11.6677 18.5924 8.9077 15.2 8.9077ZM24.3407 4.74754C23.6934 4.74754 23.1688 5.27221 23.1688 5.91942C23.1688 6.56666 23.6934 7.0913 24.3407 7.0913C24.9879 7.0913 25.5125 6.56666 25.5125 5.91942C25.5125 5.27221 24.9879 4.74754 24.3407 4.74754Z" fill="white"/>
</g>
</g>
<defs>
<clipPath id="clip0_2_804">
<rect width="30" height="30" fill="white" transform="translate(0.200012 0.0600586)"/>
</clipPath>
<clipPath id="clip1_2_804">
<rect width="30" height="30" fill="white" transform="translate(0.200012 0.0600586)"/>
</clipPath>
</defs>
</svg>
