<?xml version="1.0" encoding="UTF-8"?>
<!DOCTYPE svg PUBLIC "-//W3C//DTD SVG 1.1//EN" "http://www.w3.org/Graphics/SVG/1.1/DTD/svg11.dtd">
<!-- Creator: CorelDRAW -->
<svg xmlns="http://www.w3.org/2000/svg" xml:space="preserve" width="25px" height="25px" style="shape-rendering:geometricPrecision; text-rendering:geometricPrecision; image-rendering:optimizeQuality; fill-rule:evenodd; clip-rule:evenodd"
viewBox="0 0 3.8033 3.8033"
 xmlns:xlink="http://www.w3.org/1999/xlink">
 <defs>
  <style type="text/css">
   <![CDATA[
    .fil0 {fill:white}
   ]]>
  </style>
 </defs>
 <g id="Layer_x0020_1">
  <metadata id="CorelCorpID_0Corel-Layer"/>
  <path class="fil0" d="M3.35763 3.8033l-2.91196 0c-0.245735,0 -0.445672,-0.199936 -0.445672,-0.445672l0 -2.91196c0,-0.245735 0.199936,-0.445672 0.445672,-0.445672l2.91196 0c0.245735,0 0.445672,0.199936 0.445672,0.445672l0 2.91196c0,0.245735 -0.199936,0.445672 -0.445672,0.445672l0 0zm-2.91189 -3.5062c-0.0819339,0 -0.148587,0.0666308 -0.148587,0.148565l0 2.91196c0,0.0819339 0.0666529,0.148565 0.148587,0.148565l2.91194 0c0.0819339,0 0.148587,-0.0666308 0.148587,-0.148565l0 -2.91196c0,-0.0819339 -0.0666529,-0.148565 -0.148587,-0.148565l-2.91194 0z"/>
  <path id="XMLID_802_" class="fil0" d="M1.51966 1.46524l-0.35633 0c-0.0158118,0 -0.0286382,0.0128043 -0.0286382,0.0286161l0 1.14475c0,0.0158118 0.0128264,0.0286382 0.0286382,0.0286382l0.35633 0c0.0158118,0 0.0286382,-0.0128264 0.0286382,-0.0286382l0 -1.14475c0,-0.0158118 -0.0128264,-0.0286161 -0.0286382,-0.0286161z"/>
  <path id="XMLID_803_" class="fil0" d="M1.34162 0.896143c-0.129635,0 -0.235121,0.105375 -0.235121,0.234877 0,0.129568 0.105486,0.234988 0.235121,0.234988 0.129568,0 0.234966,-0.105419 0.234966,-0.234988 0,-0.129502 -0.105397,-0.234877 -0.234966,-0.234877z"/>
  <path id="XMLID_804_" class="fil0" d="M2.42602 1.43677c-0.143102,0 -0.248898,0.0615223 -0.313074,0.131426l0 -0.0743487c0,-0.0158118 -0.0128043,-0.0286161 -0.0286382,-0.0286161l-0.341248 0c-0.0158118,0 -0.0286161,0.0128043 -0.0286161,0.0286161l0 1.14475c0,0.0158118 0.0128043,0.0286382 0.0286161,0.0286382l0.355556 0c0.0158118,0 0.0286382,-0.0128264 0.0286382,-0.0286382l0 -0.566395c0,-0.190847 0.0518362,-0.265196 0.184877,-0.265196 0.144894,0 0.156415,0.119197 0.156415,0.275037l0 0.556554c0,0.0158339 0.0128264,0.0286382 0.0286382,0.0286382l0.355688 0c0.0158118,0 0.0286161,-0.0128043 0.0286161,-0.0286382l0 -0.627917c0,-0.283794 -0.054114,-0.573913 -0.455469,-0.573913z"/>
 </g>
</svg>
