<svg width="70" height="71" viewBox="0 0 70 71" fill="none" xmlns="http://www.w3.org/2000/svg">
<path d="M56.809 9.09016C50.005 5.40816 43.145 5.88416 36.719 10.1682C35.319 11.1202 34.521 11.0852 33.156 10.1682C29.3556 7.55698 24.7452 6.39445 20.1611 6.89145C15.577 7.38845 11.3228 9.51207 8.17034 12.8771C5.01788 16.2421 3.17594 20.6255 2.97865 25.2323C2.78136 29.8391 4.2418 34.364 7.09503 37.9862C7.96621 38.9744 8.54333 40.1868 8.76103 41.4862C8.89229 42.6041 9.39707 43.645 10.1936 44.4403C10.9902 45.2356 12.0319 45.7387 13.15 45.8682C14.459 46.1062 14.851 46.5682 15.075 47.7792C15.2206 48.8929 15.7261 49.9286 16.5146 50.7285C17.3031 51.5284 18.3315 52.0487 19.443 52.2102C20.892 52.4692 21.235 53.1342 21.487 54.3802C21.6709 55.4432 22.1852 56.4212 22.9568 57.1752C23.7284 57.9292 24.718 58.4208 25.785 58.5802C27.185 58.8392 27.542 59.4202 27.85 60.6802C28.956 65.1462 34.01 66.5952 37.454 63.4802C38.7 62.3602 39.89 61.1142 41.031 59.9172C41.5889 59.2318 42.393 58.7921 43.271 58.6922C44.5702 58.6533 45.8126 58.1505 46.7731 57.2748C47.7336 56.399 48.3487 55.2083 48.507 53.9182C48.71 52.8542 49.053 52.5182 50.11 52.2942C51.3144 52.155 52.4362 51.6122 53.2929 50.7543C54.1496 49.8964 54.6906 48.7737 54.828 47.5692C55.038 46.3092 55.619 46.0712 56.711 45.8962C58.566 45.6092 60.323 44.4962 60.666 42.7602C61.247 39.8412 63.123 37.7832 64.502 35.3892C66.1116 32.6085 66.9433 29.4459 66.91 26.2332C66.756 18.6452 63.515 12.7232 56.809 9.09016ZM14.361 43.3902C13.7743 43.4135 13.1941 43.2606 12.695 42.9512C12.196 42.6418 11.801 42.19 11.561 41.6542C11.2507 41.147 11.1149 40.5523 11.1743 39.9608C11.2337 39.3693 11.4851 38.8134 11.89 38.3782C13.444 36.6912 15.082 35.0672 16.79 33.4782C17.2235 33.0859 17.7731 32.8457 18.3554 32.7939C18.9378 32.7421 19.5211 32.8816 20.017 33.1912C20.5412 33.4347 20.9806 33.8294 21.2788 34.3247C21.5769 34.8199 21.7201 35.3929 21.69 35.9702C21.69 37.9862 16.356 43.3412 14.361 43.3552V43.3902ZM22.887 48.8362C21.417 50.1662 19.814 50.1662 18.449 48.7172C18.1564 48.4443 17.924 48.1132 17.7668 47.7452C17.6097 47.3772 17.5312 46.9804 17.5365 46.5803C17.5418 46.1801 17.6307 45.7855 17.7975 45.4218C17.9643 45.0581 18.2053 44.7332 18.505 44.4682C19.905 42.9352 21.438 41.4512 22.992 40.0162C23.4335 39.5764 24.0111 39.2995 24.6304 39.2308C25.2497 39.1622 25.874 39.3058 26.401 39.6382C26.927 39.8804 27.3649 40.2797 27.6545 40.7812C27.9441 41.2826 28.0711 41.8615 28.018 42.4382C28.0327 42.8269 27.9661 43.2143 27.8227 43.5759C27.6793 43.9375 27.4621 44.2652 27.185 44.5382C25.75 45.9522 24.371 47.4362 22.887 48.8012V48.8362ZM29.026 55.3462C28.7627 55.6193 28.4458 55.8351 28.095 55.9798C27.7443 56.1246 27.3675 56.1953 26.9882 56.1874C26.6088 56.1795 26.2352 56.0932 25.8909 55.934C25.5465 55.7748 25.2387 55.546 24.987 55.2622C23.685 54.0162 23.447 52.4622 24.693 51.0622C26.142 49.4242 27.766 47.9262 29.348 46.4072C29.7893 45.9646 30.3684 45.6858 30.9895 45.6171C31.6107 45.5484 32.2367 45.6937 32.764 46.0292C33.2813 46.2853 33.713 46.6864 34.0063 47.1835C34.2996 47.6807 34.442 48.2525 34.416 48.8292C34.4414 49.5374 34.1904 50.2277 33.716 50.7542C32.148 52.2452 30.65 53.8482 29.026 55.3112V55.3462ZM33.527 62.4582C32.9576 62.4768 32.3942 62.3368 31.8997 62.0537C31.4053 61.7706 30.9993 61.3557 30.727 60.8552C30.3769 60.3376 30.2145 59.7157 30.2667 59.093C30.3189 58.4703 30.5826 57.8842 31.014 57.4322C32.554 55.7382 34.206 54.1562 35.879 52.6022C36.3085 52.2095 36.8558 51.9699 37.4356 51.9205C38.0154 51.8712 38.5953 52.0148 39.085 52.3292C39.6111 52.5631 40.0546 52.95 40.3579 53.4393C40.6613 53.9287 40.8104 54.4979 40.786 55.0732C40.744 56.9842 35.487 62.3602 33.527 62.4232V62.4582ZM57.628 42.4522C56.074 43.9572 54.408 43.5652 52.938 42.1302C49.354 38.5602 45.812 34.9972 42.228 31.4552C41.458 30.6852 40.604 29.3202 39.428 30.4612C38.252 31.6022 39.498 32.5122 40.282 33.2612C43.705 36.7052 47.17 40.1352 50.6 43.5932C52.63 45.6442 52.882 47.4852 51.244 48.8502C49.319 50.4532 47.744 49.6342 46.162 48.0452C42.704 44.4962 39.162 41.0452 35.662 37.5452C34.913 36.8452 34.115 35.7252 33.037 36.8452C31.959 37.9652 33.037 38.7912 33.737 39.5262C37.279 43.1032 40.863 46.6522 44.447 50.2012C45.966 51.6992 46.547 53.2672 45.007 55.1012C44.7215 55.4197 44.3268 55.6196 43.901 55.6612C43.299 55.6612 43.453 55.0312 43.404 54.6182C43.082 51.6852 41.423 49.9492 38.581 49.4032C37.538 49.2002 37.111 48.8572 36.957 47.7792C36.565 45.1192 34.857 43.5792 32.267 43.0402C31.28 42.8372 30.769 42.6132 30.615 41.4862C30.4954 40.2793 29.9686 39.1492 29.1213 38.2815C28.274 37.4139 27.1567 36.8604 25.953 36.7122C24.742 36.4602 24.49 35.9702 24.203 34.8992C22.992 30.0552 18.008 28.6762 14.326 32.0992C13.079 33.2213 11.8943 34.4107 10.777 35.6622C9.79003 36.8242 9.18803 36.4602 8.42503 35.3612C6.64703 32.7992 5.59003 29.3412 5.59003 24.7702C5.88403 19.5342 8.64203 14.6342 14.186 11.5472C19.73 8.46016 25.169 8.74716 30.629 11.7502C32.505 12.7792 33.205 13.6822 31.14 15.2852C29.9266 16.3118 28.7918 17.428 27.745 18.6242C25.323 21.2002 25.26 24.5602 27.542 26.9472C29.824 29.3342 33.338 29.2712 35.9 26.9472C37.335 25.6382 38.7 24.2522 40.03 22.8242C40.877 21.8862 41.479 21.8302 42.382 22.7682C47.345 27.8222 52.378 32.7992 57.39 37.8112C58.86 39.2602 59.196 40.9192 57.628 42.4522ZM61.59 35.1022C60.722 36.5512 60.12 36.6352 58.881 35.3752C53.743 30.1602 48.437 25.0222 43.334 19.7512C41.801 18.1692 40.744 18.0152 39.26 19.7512C37.776 21.4872 35.935 23.1812 34.213 24.8332C32.729 26.2332 31.042 26.5692 29.537 25.0222C28.032 23.4752 28.347 21.8162 29.831 20.3462C32.148 18.0432 34.332 15.5722 36.831 13.4722C42.116 9.05516 48.136 8.10316 54.429 10.9522C60.722 13.8012 63.928 19.1212 64.229 24.8122C64.229 29.3412 63.256 32.3022 61.59 35.1022Z" fill="#60BABB"/>
</svg>
