<svg width="71" height="71" viewBox="0 0 71 71" fill="none" xmlns="http://www.w3.org/2000/svg">
<path d="M12.103 48.3601C11.9045 48.5896 11.7619 48.8621 11.6866 49.1561C11.6113 49.45 11.6053 49.7575 11.669 50.0541C11.7551 50.3792 11.9095 50.6823 12.1219 50.943C12.3344 51.2037 12.6 51.4162 12.901 51.5661C12.901 51.5661 14.399 53.5751 14.399 54.7441C14.478 55.6293 14.341 56.5205 14 57.3411C13.594 58.3001 5.70499 59.4691 5.36899 65.2091H28.469C28.126 59.4691 20.265 58.3001 19.838 57.3271C19.4913 56.508 19.3518 55.616 19.432 54.7301C19.432 53.5611 20.937 51.5521 20.937 51.5521C21.2375 51.4025 21.5024 51.1901 21.7137 50.9292C21.9251 50.6684 22.0779 50.3652 22.162 50.0401C22.2251 49.7456 22.2187 49.4405 22.1434 49.1489C22.0681 48.8573 21.9258 48.5872 21.728 48.3601C22.302 46.6031 23.436 40.5341 16.982 40.3171H16.891C10.402 40.5201 11.536 46.5821 12.103 48.3601Z" stroke="#60BABB" stroke-width="2.8" stroke-linecap="round" stroke-linejoin="round"/>
<path d="M49.777 48.3601C49.5799 48.5905 49.4382 48.863 49.363 49.1567C49.2877 49.4504 49.2809 49.7574 49.343 50.0541C49.4291 50.3792 49.5835 50.6823 49.796 50.943C50.0084 51.2037 50.274 51.4162 50.575 51.5661C50.575 51.5661 52.073 53.5751 52.073 54.7441C52.152 55.6293 52.015 56.5205 51.674 57.3411C51.268 58.3001 43.365 59.4691 43.043 65.2091H66.143C65.807 59.4621 57.918 58.2931 57.519 57.3201C57.1779 56.4995 57.041 55.6083 57.12 54.7231C57.12 53.5541 58.618 51.5451 58.618 51.5451C58.9185 51.3955 59.1834 51.1831 59.3947 50.9222C59.6061 50.6614 59.7589 50.3582 59.843 50.0331C59.904 49.7392 59.896 49.435 59.8194 49.1447C59.7429 48.8544 59.6 48.5858 59.402 48.3601C59.976 46.6031 61.11 40.5341 54.656 40.3171H54.565C48.076 40.5201 49.21 46.5821 49.777 48.3601Z" stroke="#60BABB" stroke-width="2.8" stroke-linecap="round" stroke-linejoin="round"/>
<path d="M30.94 12.492C30.7423 12.7234 30.6003 12.9971 30.5251 13.292C30.4498 13.5869 30.4433 13.8951 30.506 14.193C30.5933 14.5175 30.7482 14.82 30.9605 15.0805C31.1728 15.3411 31.4378 15.5539 31.738 15.705C31.738 15.705 33.236 17.707 33.236 18.876C33.3238 19.7589 33.1965 20.65 32.865 21.473C32.431 22.46 24.542 23.615 24.206 29.362H47.306C46.963 23.615 39.074 22.46 38.675 21.473C38.3283 20.6538 38.1888 19.7619 38.269 18.876C38.269 17.714 39.774 15.705 39.774 15.705C40.0737 15.5542 40.3379 15.3414 40.5491 15.0807C40.7603 14.8201 40.9137 14.5174 40.999 14.193C41.065 13.8953 41.0601 13.5862 40.9847 13.2908C40.9093 12.9953 40.7655 12.7217 40.565 12.492C41.139 10.735 42.273 4.67297 35.819 4.44897H35.735C29.239 4.67297 30.373 10.735 30.94 12.492Z" stroke="#60BABB" stroke-width="2.8" stroke-linecap="round" stroke-linejoin="round"/>
<path d="M35.756 43.9431L43.652 48.8431" stroke="#60BABB" stroke-width="2.8" stroke-linecap="round" stroke-linejoin="round"/>
<path d="M35.756 36.0471V43.9431L27.853 48.8081" stroke="#60BABB" stroke-width="2.8" stroke-linecap="round" stroke-linejoin="round"/>
</svg>
