<svg width="71" height="71" viewBox="0 0 71 71" fill="none" xmlns="http://www.w3.org/2000/svg">
<path fill-rule="evenodd" clip-rule="evenodd" d="M35.765 53.5051C32.0754 53.5023 28.4695 52.4055 25.4032 50.3534C22.3369 48.3012 19.9481 45.3859 18.5387 41.9761C17.1293 38.5663 16.7627 34.8151 17.4852 31.1969C18.2077 27.5788 19.9869 24.2561 22.5978 21.6491C25.2087 19.0421 28.5341 17.2679 32.1533 16.5508C35.7726 15.8337 39.5232 16.206 42.9309 17.6205C46.3386 19.035 49.2503 21.4282 51.2978 24.4976C53.3454 27.5669 54.4368 31.1745 54.434 34.8641C54.4322 37.3139 53.9478 39.7393 53.0086 42.002C52.0694 44.2646 50.6938 46.3201 48.9602 48.0511C47.2266 49.782 45.1691 51.1546 42.905 52.0904C40.641 53.0262 38.2148 53.5069 35.765 53.5051ZM35.765 18.0081C32.4298 18.0067 29.1691 18.9943 26.3952 20.8461C23.6214 22.6979 21.4589 25.3306 20.1813 28.4114C18.9037 31.4922 18.5684 34.8826 19.2177 38.154C19.867 41.4254 21.4718 44.4307 23.8291 46.7901C26.1865 49.1494 29.1905 50.7567 32.4613 51.4087C35.7322 52.0607 39.1229 51.7282 42.2047 50.4531C45.2866 49.1781 47.9211 47.0178 49.7752 44.2455C51.6293 41.4731 52.6196 38.2133 52.621 34.8781C52.621 30.4063 50.8456 26.1175 47.6848 22.9541C44.5241 19.7908 40.2368 18.0118 35.765 18.0081Z" fill="#60BABB" stroke="#60BABB" stroke-width="0.7" stroke-miterlimit="10"/>
<path fill-rule="evenodd" clip-rule="evenodd" d="M32.545 44.944C32.3803 44.9249 32.2183 44.8874 32.062 44.832C32.014 44.7662 31.9485 44.7153 31.873 44.685L28.576 41.423L24.019 36.866C23.4147 36.2617 23.0752 35.4421 23.0752 34.5875C23.0752 33.7329 23.4147 32.9133 24.019 32.309C24.6233 31.7047 25.4429 31.3652 26.2975 31.3652C27.1521 31.3652 27.9717 31.7047 28.576 32.309L32.545 36.236L42.954 25.736C43.2492 25.4376 43.6016 25.2019 43.9902 25.0431C44.3787 24.8844 44.7953 24.8057 45.215 24.812C45.6347 24.7978 46.0526 24.8728 46.4412 25.0321C46.8297 25.1914 47.18 25.4313 47.469 25.736C47.7819 26.0374 48.0316 26.3982 48.2035 26.7972C48.3754 27.1963 48.466 27.6255 48.47 28.06C48.4697 28.4858 48.3805 28.9068 48.2081 29.2961C48.0358 29.6855 47.784 30.0345 47.469 30.321L33.133 44.685L32.951 44.832C32.8331 44.8864 32.7083 44.924 32.58 44.944H32.545ZM26.315 33.163C25.9309 33.1631 25.5609 33.3081 25.279 33.569C25.152 33.7022 25.0525 33.8592 24.9862 34.0309C24.9199 34.2026 24.8882 34.3857 24.8927 34.5697C24.8973 34.7537 24.9381 34.935 25.0128 35.1032C25.0874 35.2714 25.1946 35.4232 25.328 35.55L32.545 42.718L46.251 29.012C46.5118 28.7441 46.6578 28.3849 46.6578 28.011C46.6578 27.6371 46.5118 27.2779 46.251 27.01C45.9775 26.7601 45.6205 26.6216 45.25 26.6216C44.8795 26.6216 44.5225 26.7601 44.249 27.01L33.133 38.161C32.9627 38.322 32.7373 38.4117 32.503 38.4117C32.2687 38.4117 32.0433 38.322 31.873 38.161C31.8109 38.1122 31.7607 38.05 31.726 37.979L27.358 33.569C27.2214 33.4332 27.0583 33.3271 26.8788 33.2572C26.6994 33.1874 26.5074 33.1553 26.315 33.163Z" fill="#60BABB" stroke="#60BABB" stroke-width="0.7" stroke-miterlimit="10"/>
<path fill-rule="evenodd" clip-rule="evenodd" d="M35.912 66.9452C34.246 66.9452 32.909 64.9852 31.544 63.6902C30.613 62.8012 29.724 61.8772 28.8 61.5902C27.6454 61.5006 26.4848 61.6507 25.391 62.0312C23.536 62.4792 21.646 62.9202 20.057 62.0312C18.468 61.1422 17.908 59.2312 17.39 57.3692C17.019 56.1092 16.648 54.8842 16.053 54.2542C15.458 53.6242 14.128 53.2532 12.903 52.8542C11.16 52.4272 9.312 51.9092 8.5 50.4602C7.688 49.0112 8.129 47.1632 8.605 45.3852C8.906 44.1672 9.305 42.9072 9.018 42.0532C8.52231 41.0474 7.84337 40.1429 7.016 39.3862C5.721 38.0912 4.216 36.5862 4.419 34.6822C4.237 32.8272 5.721 31.3432 7.016 30.0132C7.87 29.1592 8.794 28.2352 9.06 27.3602C9.326 26.4852 8.948 25.2602 8.654 24.0212C8.164 22.2362 7.66 20.3602 8.535 18.9602C9.41 17.5602 11.202 16.9582 12.945 16.4402C14.205 16.0692 15.465 15.7402 16.095 15.0402C16.725 14.3402 17.054 13.1222 17.46 11.9602C17.978 10.1122 18.538 8.22216 20.127 7.29116C21.716 6.36016 23.627 6.85016 25.461 7.29116C26.721 7.59216 27.981 7.92116 28.87 7.70416C29.759 7.48716 30.76 6.59116 31.67 5.66016C32.951 4.33016 34.26 3.03516 35.989 3.03516C37.718 3.03516 39.027 4.37916 40.287 5.66016C41.211 6.54916 42.135 7.50816 42.954 7.76016C44.0806 7.84677 45.2132 7.70876 46.286 7.35416C48.064 6.87116 49.919 6.35316 51.396 7.24216C52.873 8.13116 53.398 9.83916 53.916 11.6172C54.252 12.8352 54.616 14.1372 55.316 14.7252C56.2718 15.3802 57.3394 15.8547 58.466 16.1252C60.321 16.6432 62.211 17.2032 63.1 18.7922C63.989 20.3812 63.506 22.2922 63.023 24.1332C62.6687 25.2302 62.5308 26.3856 62.617 27.5352C62.876 28.3892 63.8 29.3552 64.717 30.2792C65.977 31.6792 67.314 32.9812 67.272 34.6542C67.23 36.3272 65.977 37.7622 64.717 39.0992C63.8509 39.8711 63.1384 40.7997 62.617 41.8362C62.5303 42.9881 62.6682 44.1458 63.023 45.2452C63.506 47.1002 63.947 48.9902 63.1 50.5792C62.253 52.1682 60.216 52.7632 58.361 53.2602C57.143 53.6242 55.918 53.9602 55.288 54.5902C54.658 55.2202 54.252 56.5572 53.888 57.7752C53.37 59.5532 52.852 61.3312 51.368 62.2202C49.884 63.1092 48.071 62.5562 46.258 62.1082C45.033 61.8142 43.815 61.4082 42.926 61.7022C41.8961 62.1701 40.9918 62.8753 40.287 63.7602C38.95 64.9152 37.62 66.9452 35.912 66.9452ZM28.135 59.7982C28.509 59.7909 28.8819 59.8405 29.241 59.9452C30.578 60.2812 31.726 61.3452 32.804 62.3952C33.882 63.4452 34.953 64.4952 35.912 64.4952C36.871 64.4952 38.012 63.4242 39.027 62.3952C40.042 61.3662 41.176 60.2462 42.527 59.8752C43.878 59.5042 45.327 59.8752 46.79 60.2812C48.253 60.6872 49.681 61.0582 50.493 60.5752C51.305 60.0922 51.718 58.6502 52.124 57.2432C52.53 55.8362 52.992 54.2402 53.958 53.2602C54.924 52.2802 56.366 51.9232 57.808 51.5172C59.25 51.1112 60.881 50.6632 61.399 49.6622C61.917 48.6612 61.553 47.1422 61.217 45.6652C60.881 44.1882 60.475 42.6972 60.811 41.4022C61.147 40.1072 62.211 38.9172 63.331 37.8462C64.332 36.7682 65.431 35.6972 65.368 34.7312V34.6612C65.403 33.6602 64.36 32.6102 63.331 31.5602C62.302 30.5102 61.14 29.3342 60.811 28.0042C60.482 26.6742 60.811 25.2042 61.217 23.7062C61.623 22.2082 61.959 20.5912 61.399 19.6672C60.839 18.7432 59.299 18.2672 57.808 17.8122C56.317 17.3572 54.882 16.9652 53.916 16.0342C52.95 15.1032 52.46 13.5282 52.068 12.0442C51.676 10.5602 51.249 9.24416 50.402 8.74716C49.555 8.25016 48.099 8.67716 46.657 9.00616C45.215 9.33516 43.731 9.78316 42.394 9.41216C41.057 9.04116 39.986 8.01216 38.894 6.89216C37.858 5.89816 36.794 4.79216 35.856 4.79216C34.918 4.79216 33.756 5.79316 32.783 6.82916C31.81 7.86516 30.557 8.97816 29.185 9.31416C27.813 9.65016 26.336 9.23716 24.929 8.94316C23.41 8.57216 21.814 8.16616 20.89 8.71916C19.966 9.27216 19.49 10.8192 19.035 12.3102C18.58 13.8012 18.223 15.2012 17.292 16.1602C16.361 17.1192 14.849 17.6022 13.365 18.0152C11.881 18.4282 10.46 18.8692 9.956 19.7232C9.452 20.5772 9.844 22.0542 10.215 23.4262C10.586 24.7982 10.992 26.3522 10.628 27.6892C10.264 29.0262 9.228 30.1602 8.129 31.1892C7.016 32.3372 5.903 33.4502 6.092 34.4862V34.7452C5.903 35.8232 7.016 36.8942 8.192 38.0842C9.228 39.1552 10.292 40.2332 10.677 41.5282C11.062 42.8232 10.635 44.3282 10.264 45.7842C9.893 47.2402 9.487 48.6752 9.97 49.4942C10.453 50.3132 11.86 50.7262 13.316 51.1602C14.772 51.5942 16.242 52.0142 17.243 52.9732C18.1021 54.1184 18.7082 55.4331 19.021 56.8302C19.427 58.3492 19.91 59.9382 20.869 60.4632C21.828 60.9882 23.389 60.6102 24.873 60.2392C25.9449 59.9943 27.0366 59.8467 28.135 59.7982Z" fill="#60BABB" stroke="#60BABB" stroke-width="0.7" stroke-miterlimit="10"/>
</svg>
