<svg width="71" height="71" viewBox="0 0 71 71" fill="none" xmlns="http://www.w3.org/2000/svg">
<path d="M62.7949 30.972C61.5349 30.069 60.0789 29.04 59.7989 28.172C59.5189 27.304 60.0719 25.498 60.5829 23.972C61.3459 21.669 62.1369 19.296 60.9119 17.609C59.6869 15.922 57.1739 15.936 54.7169 15.957C53.1139 15.957 51.3079 15.957 50.5169 15.411C49.7259 14.865 49.2219 13.143 48.7459 11.638C48.0459 9.28605 47.2479 6.84305 45.2459 6.20605C43.2439 5.56905 41.3259 7.06005 39.4009 8.46005C38.0359 9.42605 36.6009 10.56 35.5299 10.56C34.4589 10.56 33.0169 9.47505 31.6939 8.46005C29.7689 7.06005 27.7809 5.56205 25.7859 6.19205C23.7909 6.82205 22.9859 9.27205 22.2859 11.603C21.8099 13.108 21.2849 14.851 20.5149 15.376C19.7449 15.901 17.9179 15.929 16.3149 15.922C13.8789 15.922 11.3449 15.922 10.1129 17.574C8.88094 19.226 9.67894 21.634 10.4489 23.937C10.9529 25.463 11.5269 27.185 11.2259 28.137C10.9249 29.089 9.56694 30.055 8.27194 30.937C6.24894 32.372 4.15594 33.863 4.15594 36.026C4.15594 38.189 6.25594 39.687 8.27194 41.115C9.53894 42.025 10.9879 43.0471 11.2679 43.9151C11.5479 44.7831 10.9949 46.5891 10.4909 48.115C9.72094 50.418 8.92994 52.791 10.1549 54.478C11.3799 56.165 13.8999 56.158 16.3569 56.13C17.9459 56.13 19.7659 56.13 20.5569 56.676C21.3479 57.222 21.8589 58.944 22.3349 60.449C23.0699 62.801 23.8259 65.223 25.8349 65.86C26.1448 65.9604 26.4683 66.0124 26.7939 66.014C28.4319 66.014 30.0419 64.7821 31.6939 63.592C33.0169 62.626 34.4939 61.4921 35.5299 61.4921C36.5659 61.4921 38.0359 62.577 39.3589 63.592C41.2839 64.9921 43.2789 66.49 45.2249 65.86C47.1709 65.23 48.0249 62.78 48.7249 60.449C49.2009 58.944 49.7329 57.208 50.4959 56.676C51.2589 56.144 53.0929 56.109 54.6959 56.13C57.1249 56.13 59.6589 56.13 60.8909 54.478C62.1229 52.826 61.3249 50.418 60.5619 48.115C60.0509 46.5891 59.4769 44.8671 59.7779 43.9151C60.0789 42.9631 61.4789 42.025 62.7739 41.115C64.8039 39.715 66.8899 38.189 66.8899 36.026C66.8899 33.863 64.8249 32.407 62.7949 30.972ZM61.4999 39.372C59.8199 40.597 58.2519 41.731 57.7199 43.278C57.1879 44.8251 57.8599 46.904 58.5109 48.829C59.0779 50.53 59.7149 52.455 59.1409 53.239C58.5669 54.023 56.5089 54.016 54.7169 54.002C52.6869 54.002 50.5939 54.002 49.2289 54.954C47.8639 55.906 47.3109 57.922 46.7089 59.854C46.1629 61.597 45.5469 63.564 44.5389 63.879C43.5309 64.194 42.0399 62.9691 40.6119 61.919C38.9599 60.701 37.2379 59.434 35.5019 59.434C33.7659 59.434 32.0509 60.701 30.3989 61.919C28.9989 63.0041 27.3539 64.159 26.4719 63.879C25.5899 63.599 24.8899 61.597 24.3019 59.854C23.6999 57.943 23.0839 55.948 21.7399 54.954C20.3293 54.1833 18.7204 53.8518 17.1199 54.002H16.3219C14.5089 54.002 12.4649 54.002 11.8909 53.239C11.3169 52.476 11.9609 50.53 12.5209 48.829C13.1719 46.904 13.8439 44.9021 13.3119 43.278C12.7799 41.654 11.1489 40.597 9.51094 39.386C8.01994 38.322 6.31194 37.16 6.31194 36.061C6.31194 34.962 8.01994 33.8 9.55294 32.736C11.2469 31.525 12.8009 30.391 13.3539 28.844C13.9069 27.297 13.2139 25.218 12.5629 23.293C12.0029 21.592 11.3659 19.667 11.9399 18.89C12.5139 18.113 14.5649 18.106 16.3639 18.12C18.3869 18.12 20.4869 18.12 21.8519 17.168C23.2169 16.216 23.7629 14.2 24.3719 12.268C24.9109 10.525 25.5269 8.55805 26.5349 8.24305C27.5429 7.92805 29.0199 9.16005 30.4619 10.189C32.1209 11.407 33.8429 12.674 35.5719 12.674C37.3009 12.674 39.0229 11.407 40.6819 10.189C42.0819 9.10405 43.7199 7.94905 44.6089 8.22905C45.4979 8.50905 46.1839 10.511 46.7719 12.254C47.3739 14.172 47.9969 16.16 49.3339 17.154C50.6709 18.148 52.7849 18.127 54.8219 18.106C56.6279 18.106 58.6719 18.106 59.2459 18.876C59.8199 19.646 59.1829 21.585 58.6229 23.279C57.9719 25.204 57.2999 27.206 57.8319 28.83C58.3639 30.454 59.9319 31.518 61.6329 32.729C63.1309 33.807 64.8739 34.997 64.8739 36.047C64.8739 37.097 63.0469 38.322 61.4999 39.386V39.372Z" fill="#60BABB"/>
<path d="M35.53 15.46C30.7545 15.4614 26.1274 17.1191 22.4374 20.1504C18.7474 23.1816 16.2229 27.3988 15.2942 32.0831C14.3656 36.7674 15.0903 41.6288 17.3449 45.8385C19.5994 50.0482 23.2442 53.3457 27.658 55.1689C32.0717 56.992 36.9811 57.228 41.5493 55.8365C46.1175 54.445 50.0618 51.5122 52.7096 47.5381C55.3575 43.564 56.545 38.7945 56.0699 34.0427C55.5948 29.291 53.4863 24.8511 50.104 21.48C48.1893 19.5684 45.9166 18.0528 43.416 17.0199C40.9153 15.9869 38.2356 15.4569 35.53 15.46ZM35.53 54.541C31.2555 54.5444 27.1122 53.0654 23.8061 50.356C20.5 47.6467 18.2358 43.8747 17.3993 39.6829C16.5629 35.4911 17.206 31.1389 19.219 27.3682C21.2321 23.5974 24.4904 20.6415 28.4388 19.0041C32.3872 17.3667 36.7812 17.1492 40.872 18.3887C44.9628 19.6282 48.4971 22.248 50.8727 25.8015C53.2482 29.3551 54.3179 33.6224 53.8995 37.8763C53.481 42.1302 51.6004 46.1074 48.578 49.13C45.1142 52.5839 40.4215 54.5224 35.53 54.52V54.541Z" fill="#60BABB"/>
<path d="M35.39 29.0052C35.3953 27.584 34.9073 26.2049 34.0093 25.1034C33.1113 24.0018 31.8589 23.2459 30.4658 22.9647C29.0727 22.6834 27.6252 22.8943 26.3702 23.5612C25.1152 24.2281 24.1304 25.3098 23.584 26.6218C23.0375 27.9337 22.9631 29.3946 23.3736 30.7553C23.7841 32.1159 24.6539 33.292 25.8347 34.0829C27.0156 34.8738 28.4342 35.2305 29.8487 35.0921C31.2631 34.9537 32.5858 34.3289 33.591 33.3242C34.1598 32.7577 34.6115 32.0847 34.9202 31.3437C35.2288 30.6026 35.3885 29.808 35.39 29.0052ZM25.324 29.0052C25.3241 28.4215 25.4537 27.8452 25.7034 27.3176C25.953 26.7901 26.3165 26.3244 26.7677 25.9542C27.219 25.584 27.7466 25.3184 28.3128 25.1766C28.879 25.0348 29.4695 25.0203 30.042 25.1342C30.8092 25.2823 31.5141 25.6579 32.065 26.2122C32.5235 26.6711 32.8618 27.236 33.0501 27.8569C33.2383 28.4777 33.2707 29.1354 33.1443 29.7717C33.0179 30.408 32.7366 31.0034 32.3253 31.5052C31.9141 32.0069 31.3855 32.3996 30.7864 32.6485C30.1872 32.8973 29.536 32.9947 28.8903 32.932C28.2446 32.8693 27.6243 32.6484 27.0842 32.2889C26.5442 31.9294 26.101 31.4423 25.794 30.8708C25.487 30.2993 25.3256 29.6609 25.324 29.0122V29.0052Z" fill="#60BABB"/>
<path d="M42.5509 36.1729C41.6489 36.1739 40.7583 36.3742 39.9428 36.7597C39.1273 37.1451 38.4072 37.7061 37.8339 38.4025C37.2606 39.0988 36.8484 39.9134 36.6268 40.7877C36.4051 41.662 36.3796 42.5746 36.5519 43.4599C36.7274 44.3473 37.0976 45.1846 37.6359 45.9115C38.1742 46.6383 38.8672 47.2366 39.6648 47.6632C40.4623 48.0898 41.3447 48.334 42.2481 48.3783C43.1515 48.4225 44.0535 48.2656 44.8889 47.9189C46.1971 47.3792 47.2774 46.4021 47.9454 45.1546C48.6134 43.907 48.8277 42.4663 48.5517 41.0783C48.2758 39.6904 47.5267 38.4412 46.4323 37.544C45.3379 36.6468 43.9661 36.1573 42.5509 36.1589V36.1729ZM42.5509 46.2319C41.771 46.2278 41.0098 45.9927 40.3633 45.5564C39.7168 45.1201 39.2141 44.502 38.9185 43.7803C38.6229 43.0585 38.5477 42.2654 38.7024 41.5009C38.8571 40.7365 39.2347 40.035 39.7877 39.4849C40.3407 38.9349 41.0441 38.561 41.8094 38.4103C42.5747 38.2597 43.3674 38.3391 44.0876 38.6385C44.8078 38.9379 45.4231 39.444 45.856 40.0927C46.2889 40.7415 46.5199 41.504 46.5199 42.2839C46.5246 42.8068 46.4252 43.3253 46.2274 43.8094C46.0297 44.2934 45.7376 44.7332 45.3683 45.1033C44.9989 45.4733 44.5595 45.7662 44.0758 45.9648C43.5921 46.1633 43.0738 46.2637 42.5509 46.2599V46.2319Z" fill="#60BABB"/>
<path d="M45.4489 26.1351C45.2458 25.9342 44.9717 25.8215 44.6859 25.8215C44.4002 25.8215 44.1261 25.9342 43.9229 26.1351L25.6039 44.4611C25.4016 44.6635 25.2879 44.938 25.2879 45.2241C25.2879 45.5103 25.4016 45.7848 25.6039 45.9871C25.8063 46.1895 26.0808 46.3032 26.3669 46.3032C26.6531 46.3032 26.9276 46.1895 27.1299 45.9871L45.4489 27.6611C45.549 27.5609 45.6283 27.4419 45.6824 27.311C45.7364 27.1801 45.7641 27.0398 45.7639 26.8981C45.7636 26.6122 45.6504 26.338 45.4489 26.1351Z" fill="#60BABB"/>
</svg>
