<svg width="71" height="71" viewBox="0 0 71 71" fill="none" xmlns="http://www.w3.org/2000/svg">
<path d="M35.365 5.35916C31.7925 5.35394 28.2481 5.98933 24.9 7.23516L25.775 9.58716C32.2766 7.14915 39.457 7.24332 45.8924 9.85098C52.3278 12.4586 57.5484 17.3894 60.519 23.6656C63.4896 29.9417 63.9933 37.1051 61.9303 43.7352C59.8672 50.3653 55.388 55.9781 49.3808 59.4607C43.3736 62.9433 36.277 64.0414 29.4982 62.5372C22.7194 61.033 16.7533 57.0364 12.7829 51.3399C8.8125 45.6433 7.12768 38.6628 8.06251 31.7823C8.99735 24.9018 12.4836 18.6239 17.83 14.1932V22.9152H20.336V10.3782H7.78496V12.8842H15.485C10.2004 17.5447 6.71837 23.9114 5.64533 30.8753C4.5723 37.8391 5.97632 44.9587 9.6128 50.9938C13.2493 57.029 18.8877 61.5971 25.546 63.9024C32.2042 66.2078 39.4602 66.1043 46.0499 63.6099C52.6397 61.1156 58.1455 56.3885 61.6084 50.2521C65.0712 44.1157 66.2715 36.9589 65.0003 30.0285C63.729 23.0981 60.0668 16.8333 54.6515 12.3254C49.2361 7.81754 42.411 5.35231 35.365 5.35916Z" fill="#60BABB"/>
<path d="M27.847 45.483H25.334V47.996H45.396V45.483H42.89V41.206L37.143 35.452L42.89 29.705V25.421H45.396V22.915H25.334V25.421H27.847V29.705L33.594 35.452L27.847 41.206V45.483ZM30.353 28.683V25.421H40.384V28.669L35.365 33.66L30.353 28.683ZM35.365 37.23L40.384 42.242V45.483H30.353V42.242L35.365 37.23Z" fill="#60BABB"/>
<path d="M30.353 53.0081H27.847V55.5141H30.353V53.0081Z" fill="#60BABB"/>
<path d="M36.6179 53.0081H34.1119V55.5141H36.6179V53.0081Z" fill="#60BABB"/>
<path d="M42.89 53.0081H40.384V55.5141H42.89V53.0081Z" fill="#60BABB"/>
</svg>
